<?xml version="1.0" encoding="UTF-8"?>
<svg id="Calque_1" xmlns="http://www.w3.org/2000/svg" version="1.1" viewBox="0 0 40 40">
  <!-- Generator: Adobe Illustrator 30.4.0, SVG Export Plug-In . SVG Version: 2.1.4 Build 226)  -->
  <defs>
    <style>
      .st0 {
        fill: #fff;
      }

      .st1 {
        fill: #4f46e5;
      }
    </style>
  </defs>
  <rect class="st1" width="40" height="40" rx="10" ry="10"/>
  <g>
    <rect class="st0" x="9.83" y="24.92" width="20.36" height="7.96" rx=".5" ry=".5"/>
    <rect class="st0" x="8.61" y="21.63" width="22.76" height="2.42" rx=".5" ry=".5"/>
    <rect class="st0" x="8.8" y="18.41" width="3.98" height=".79" rx=".33" ry=".33" transform="translate(-8.01 29.6) rotate(-90)"/>
    <rect class="st0" x="27.24" y="18.41" width="3.98" height=".79" rx=".33" ry=".33" transform="translate(10.43 48.03) rotate(-90)"/>
    <path class="st0" d="M8.81,12.69h3.5s.1.02.16.07c.1.08.12.21.12.23,0,.24,0,.61,0,1.06,0,.61.02.73-.02.88-.07.24-.3.68-1.32.97-.9.21-1.79-.07-2.3-.75-.3-.41-.39-.86-.43-1.13v-1.01c.02-.05.07-.15.15-.23.05-.05.1-.07.14-.09Z"/>
    <path class="st0" d="M31.19,12.69h-3.5s-.1.02-.16.07c-.1.08-.12.21-.12.23,0,.24,0,.61,0,1.06,0,.61-.02.73.02.88.07.24.3.68,1.32.97.9.21,1.79-.07,2.3-.75.3-.41.39-.86.43-1.13v-1.01c-.02-.05-.07-.15-.15-.23-.05-.05-.1-.07-.14-.09Z"/>
    <path class="st0" d="M13.66,12.69c1.1-.01,2.21-.02,3.31-.04.04,0,.14.02.23.1.13.12.15.28.15.32,0,.21.01.53,0,.91,0,.59-.01.88-.05,1.01-.23.71-1.3.93-1.87.95-.68.02-1.71-.21-2.02-.95-.02-.05-.04-.1-.05-.13,0-.62,0-1.24,0-1.85.02-.05.07-.15.15-.23.05-.05.1-.07.14-.09Z"/>
    <path class="st0" d="M18.31,12.69c1.1-.01,2.21-.02,3.31-.04.04,0,.14.02.23.1.13.12.15.28.15.32,0,.21.01.53,0,.91,0,.59-.01.88-.05,1.01-.23.71-1.3.93-1.87.95-.68.02-1.71-.21-2.02-.95-.02-.05-.04-.1-.05-.13,0-.62,0-1.24,0-1.85.02-.05.07-.15.15-.23.05-.05.1-.07.14-.09Z"/>
    <path class="st0" d="M23,12.69c1.1-.01,2.21-.02,3.31-.04.04,0,.14.02.23.1.13.12.15.28.15.32,0,.21.01.53,0,.91,0,.59-.01.88-.05,1.01-.23.71-1.3.93-1.87.95-.68.02-1.71-.21-2.02-.95-.02-.05-.04-.1-.05-.13,0-.62,0-1.24,0-1.85.02-.05.07-.15.15-.23.05-.05.1-.07.14-.09Z"/>
    <path class="st0" d="M11.39,7.12h1.67s.12.04.19.13c.09.1.11.22.11.26-.21,1.22-.42,2.44-.63,3.66-.02.32-.14.56-.31.61-.03,0-.07.01-.12,0h-3.05c-.05,0-.12-.02-.18-.07-.14-.1-.2-.31-.18-.52.09-.22.24-.59.41-1.04.55-1.49.63-2,1.1-2.46.18-.18.48-.42.98-.56Z"/>
    <path class="st0" d="M28.57,7.12h-1.67s-.12.04-.19.13c-.09.1-.11.22-.11.26.21,1.22.42,2.44.63,3.66.02.32.14.56.31.61.03,0,.07.01.12,0h3.05c.05,0,.12-.02.18-.07.14-.1.2-.31.18-.52-.09-.22-.24-.59-.41-1.04-.55-1.49-.63-2-1.1-2.46-.18-.18-.48-.42-.98-.56Z"/>
    <path class="st0" d="M14.22,7.44c.04-.06.1-.14.2-.21.07-.05.13-.09.18-.11h2.57c.05.03.14.08.21.18.07.09.1.17.12.23-.05,1.26-.1,2.51-.14,3.77,0,.05-.01.17-.1.29-.1.14-.24.18-.28.19h-3.07s-.17-.04-.27-.18c-.08-.12-.08-.24-.08-.28.22-1.29.44-2.58.66-3.88Z"/>
    <path class="st0" d="M25.78,7.44c-.04-.06-.1-.14-.2-.21-.07-.05-.13-.09-.18-.11h-2.57c-.05.03-.14.08-.21.18-.07.09-.1.17-.12.23.05,1.26.1,2.51.14,3.77,0,.05.01.17.1.29.1.14.24.18.28.19h3.07s.17-.04.27-.18c.08-.12.08-.24.08-.28-.22-1.29-.44-2.58-.66-3.88Z"/>
    <path class="st0" d="M18.3,7.41s.02-.13.1-.21c.06-.06.12-.07.15-.08h2.89s.12.04.2.13c.09.12.08.25.08.28.12,2.03.17,3.52.15,3.83,0,.08-.02.24-.13.34-.08.07-.17.08-.24.07h-2.99s-.17-.04-.27-.18c-.08-.12-.08-.24-.08-.28.05-1.3.1-2.61.16-3.91Z"/>
  </g>
</svg>