<?xml version="1.0" encoding="UTF-8"?>
<svg id="Calque_1" xmlns="http://www.w3.org/2000/svg" version="1.1" viewBox="0 0 40 40">
  <!-- Generator: Adobe Illustrator 30.4.0, SVG Export Plug-In . SVG Version: 2.1.4 Build 226)  -->
  <defs>
    <style>
      .st0 {
        stroke: #fff;
        stroke-width: .25px;
      }

      .st0, .st1 {
        fill: #0ea5e9;
      }

      .st0, .st2 {
        stroke-miterlimit: 10;
      }

      .st3 {
        fill: #fff;
      }

      .st2 {
        fill: #ededed;
        stroke: #1d1d1b;
        stroke-linecap: round;
        stroke-width: .5px;
      }
    </style>
  </defs>
  <circle class="st1" cx="20" cy="20" r="20"/>
  <path class="st2" d="M-30.56,17.05"/>
  <g>
    <g>
      <rect class="st3" x="9.83" y="24.92" width="20.36" height="7.96" rx=".5" ry=".5"/>
      <rect class="st3" x="8.61" y="21.63" width="22.76" height="2.42" rx=".5" ry=".5"/>
      <rect class="st3" x="10.4" y="16.82" width=".79" height="3.98" rx=".33" ry=".33"/>
      <rect class="st3" x="28.84" y="16.81" width=".79" height="3.98" rx=".33" ry=".33"/>
      <path class="st3" d="M8.81,12.69h3.5s.1.02.16.07c.1.08.12.21.12.23v1.06c0,.61.02.73-.02.88-.07.24-.3.68-1.32.97-.9.21-1.79-.07-2.3-.75-.3-.41-.39-.86-.43-1.13v-1.01c.02-.05.07-.15.15-.23.05-.05.1-.07.14-.09Z"/>
      <path class="st3" d="M31.19,12.69h-3.5s-.1.02-.16.07c-.1.08-.12.21-.12.23v1.06c0,.61-.02.73.02.88.07.24.3.68,1.32.97.9.21,1.79-.07,2.3-.75.3-.41.39-.86.43-1.13v-1.01c-.02-.05-.07-.15-.15-.23-.05-.05-.1-.07-.14-.09Z"/>
      <path class="st3" d="M13.66,12.69c1.1-.01,2.21-.02,3.31-.04.04,0,.14.02.23.1.13.12.15.28.15.32,0,.21.01.53,0,.91,0,.59-.01.88-.05,1.01-.23.71-1.3.93-1.87.95-.68.02-1.71-.21-2.02-.95-.02-.05-.04-.1-.05-.13v-1.85c.02-.05.07-.15.15-.23.05-.05.1-.07.14-.09h.01Z"/>
      <path class="st3" d="M18.31,12.69c1.1-.01,2.21-.02,3.31-.04.04,0,.14.02.23.1.13.12.15.28.15.32,0,.21.01.53,0,.91,0,.59-.01.88-.05,1.01-.23.71-1.3.93-1.87.95-.68.02-1.71-.21-2.02-.95-.02-.05-.04-.1-.05-.13v-1.85c.02-.05.07-.15.15-.23.05-.05.1-.07.14-.09h.01Z"/>
      <path class="st3" d="M23,12.69c1.1-.01,2.21-.02,3.31-.04.04,0,.14.02.23.1.13.12.15.28.15.32,0,.21.01.53,0,.91,0,.59-.01.88-.05,1.01-.23.71-1.3.93-1.87.95-.68.02-1.71-.21-2.02-.95-.02-.05-.04-.1-.05-.13v-1.85c.02-.05.07-.15.15-.23.05-.05.1-.07.14-.09h.01Z"/>
      <path class="st3" d="M11.39,7.12h1.67s.12.04.19.13c.09.1.11.22.11.26-.21,1.22-.42,2.44-.63,3.66-.02.32-.14.56-.31.61-.03,0-.07.01-.12,0h-3.05c-.05,0-.12-.02-.18-.07-.14-.1-.2-.31-.18-.52.09-.22.24-.59.41-1.04.55-1.49.63-2,1.1-2.46.18-.18.48-.42.98-.56h.01Z"/>
      <path class="st3" d="M28.57,7.12h-1.67s-.12.04-.19.13c-.09.1-.11.22-.11.26.21,1.22.42,2.44.63,3.66.02.32.14.56.31.61.03,0,.07.01.12,0h3.05s.12-.02.18-.07c.14-.1.2-.31.18-.52-.09-.22-.24-.59-.41-1.04-.55-1.49-.63-2-1.1-2.46-.18-.18-.48-.42-.98-.56h0Z"/>
      <path class="st3" d="M14.22,7.44c.04-.06.1-.14.2-.21.07-.05.13-.09.18-.11h2.57s.14.08.21.18c.07.09.1.17.12.23-.05,1.26-.1,2.51-.14,3.77,0,.05-.01.17-.1.29-.1.14-.24.18-.28.19h-3.07s-.17-.04-.27-.18c-.08-.12-.08-.24-.08-.28.22-1.29.44-2.58.66-3.88Z"/>
      <path class="st3" d="M25.78,7.44c-.04-.06-.1-.14-.2-.21-.07-.05-.13-.09-.18-.11h-2.57s-.14.08-.21.18c-.07.09-.1.17-.12.23.05,1.26.1,2.51.14,3.77,0,.05.01.17.1.29.1.14.24.18.28.19h3.07s.17-.04.27-.18c.08-.12.08-.24.08-.28-.22-1.29-.44-2.58-.66-3.88Z"/>
      <path class="st3" d="M18.3,7.41s.02-.13.1-.21c.06-.06.12-.07.15-.08h2.89s.12.04.2.13c.09.12.08.25.08.28.12,2.03.17,3.52.15,3.83,0,.08-.02.24-.13.34-.08.07-.17.08-.24.07h-2.99s-.17-.04-.27-.18c-.08-.12-.08-.24-.08-.28.05-1.3.1-2.61.16-3.91h-.02Z"/>
    </g>
    <path class="st0" d="M20.02,4.07c-2.51,0-4.5,2.2-4.5,4.97s4.5,9.23,4.5,9.23c0,0,4.5-6.46,4.5-9.23s-1.99-4.97-4.5-4.97ZM20.02,11.17c-1.09,0-1.93-.92-1.93-2.13s.84-2.13,1.93-2.13,1.93.92,1.93,2.13-.84,2.13-1.93,2.13Z" data-original="#000000"/>
    <ellipse class="st1" cx="20.02" cy="9.03" rx="1.86" ry="2.05"/>
  </g>
</svg>