<?xml version="1.0" encoding="UTF-8"?>
<svg id="Calque_1" xmlns="http://www.w3.org/2000/svg" version="1.1" viewBox="0 0 138.7 30.45">
  <!-- Generator: Adobe Illustrator 30.5.1, SVG Export Plug-In . SVG Version: 2.1.4 Build 3)  -->
  <defs>
    <style>
      .st0, .st1, .st2 {
        isolation: isolate;
      }

      .st3, .st1 {
        fill: #fff;
      }

      .st1 {
        font-family: Helvetica-Bold, Helvetica;
        font-weight: 700;
        letter-spacing: -.04em;
      }

      .st1, .st2 {
        font-size: 20.42px;
      }

      .st2 {
        font-family: ArialMT, Arial;
        letter-spacing: -.04em;
      }

      .st2, .st4 {
        fill: #4f46e5;
      }
    </style>
  </defs>
  <g class="st0">
    <g class="st0">
      <text class="st1" transform="translate(29.09 20.63)"><tspan x="0" y="0">Pulse</tspan></text>
    </g>
  </g>
  <g class="st0">
    <g class="st0">
      <text class="st2" transform="translate(80.38 20.63)"><tspan x="0" y="0">Market</tspan></text>
    </g>
  </g>
  <rect class="st4" width="27.17" height="26.6" rx="6" ry="6"/>
  <g>
    <rect class="st3" x="6.68" y="16.57" width="13.83" height="5.29" rx=".5" ry=".5"/>
    <rect class="st3" x="5.85" y="14.39" width="15.46" height="1.61" rx=".5" ry=".5"/>
    <path class="st3" d="M7.33,11.19h0c.15,0,.27.12.27.27v2.11c0,.15-.12.27-.27.27h0c-.15,0-.27-.12-.27-.27v-2.11c0-.15.12-.27.27-.27Z"/>
    <path class="st3" d="M19.86,11.18h0c.15,0,.27.12.27.27v2.11c0,.15-.12.27-.27.27h0c-.15,0-.27-.12-.27-.27v-2.11c0-.15.12-.27.27-.27Z"/>
    <path class="st3" d="M5.98,8.44h2.38s.07.01.11.05c.07.05.08.14.08.15v.7c0,.41.01.49-.01.59-.05.16-.2.45-.9.65-.61.14-1.22-.05-1.56-.5-.2-.27-.26-.57-.29-.75v-.67s.05-.1.1-.15c.03-.03.07-.05.1-.06h0Z"/>
    <path class="st3" d="M21.19,8.44h-2.38s-.07.01-.11.05c-.07.05-.08.14-.08.15v.7c0,.41-.01.49.01.59.05.16.2.45.9.65.61.14,1.22-.05,1.56-.5.2-.27.26-.57.29-.75v-.67s-.05-.1-.1-.15c-.03-.03-.07-.05-.1-.06h.01Z"/>
    <path class="st3" d="M9.28,8.44c.75,0,1.5-.01,2.25-.03.03,0,.1.01.16.07.09.08.1.19.1.21v.61c0,.39,0,.59-.03.67-.16.47-.88.62-1.27.63-.46.01-1.16-.14-1.37-.63-.01-.03-.03-.07-.03-.09v-1.23s.05-.1.1-.15c.03-.03.07-.05.1-.06h-.01Z"/>
    <path class="st3" d="M12.44,8.44c.75,0,1.5-.01,2.25-.03.03,0,.1.01.16.07.09.08.1.19.1.21v.61c0,.39,0,.59-.03.67-.16.47-.88.62-1.27.63-.46.01-1.16-.14-1.37-.63-.01-.03-.03-.07-.03-.09v-1.23s.05-.1.1-.15c.03-.03.07-.05.1-.06h-.01Z"/>
    <path class="st3" d="M15.62,8.44c.75,0,1.5-.01,2.25-.03.03,0,.1.01.16.07.09.08.1.19.1.21v.61c0,.39,0,.59-.03.67-.16.47-.88.62-1.27.63-.46.01-1.16-.14-1.37-.63-.01-.03-.03-.07-.03-.09v-1.23s.05-.1.1-.15c.03-.03.07-.05.1-.06h0Z"/>
    <path class="st3" d="M7.74,4.74h1.13s.08.03.13.09c.06.07.07.15.07.17-.14.81-.29,1.62-.43,2.43-.01.21-.1.37-.21.41h-2.15s-.08-.01-.12-.05c-.1-.07-.14-.21-.12-.35.06-.15.16-.39.28-.69.37-.99.43-1.33.75-1.64.12-.12.33-.28.67-.37h0Z"/>
    <path class="st3" d="M19.41,4.74h-1.13s-.08.03-.13.09c-.06.07-.07.15-.07.17.14.81.29,1.62.43,2.43.01.21.1.37.21.41h2.15s.08-.01.12-.05c.1-.07.14-.21.12-.35-.06-.15-.16-.39-.28-.69-.37-.99-.43-1.33-.75-1.64-.12-.12-.33-.28-.67-.37h0Z"/>
    <path class="st3" d="M9.66,4.95s.07-.09.14-.14c.05-.03.09-.06.12-.07h1.75s.1.05.14.12c.05.06.07.11.08.15-.03.84-.07,1.67-.1,2.51,0,.03,0,.11-.07.19-.07.09-.16.12-.19.13h-2.09s-.12-.03-.18-.12c-.05-.08-.05-.16-.05-.19.15-.86.3-1.72.45-2.58Z"/>
    <path class="st3" d="M17.51,4.95s-.07-.09-.14-.14c-.05-.03-.09-.06-.12-.07h-1.75s-.1.05-.14.12c-.05.06-.07.11-.08.15.03.84.07,1.67.1,2.51,0,.03,0,.11.07.19.07.09.16.12.19.13h2.09s.12-.03.18-.12c.05-.08.05-.16.05-.19-.15-.86-.3-1.72-.45-2.58Z"/>
    <path class="st3" d="M12.43,4.93s.01-.09.07-.14c.04-.04.08-.05.1-.05h1.96s.08.03.14.09c.06.08.05.17.05.19.08,1.35.12,2.34.1,2.55,0,.05-.01.16-.09.23-.05.05-.12.05-.16.05h-2.03s-.12-.03-.18-.12c-.05-.08-.05-.16-.05-.19.03-.86.07-1.74.11-2.6h-.02Z"/>
  </g>
</svg>